<?xml version="1.0" encoding="UTF-8" standalone="no"?>
<svg
   xmlns:dc="http://purl.org/dc/elements/1.1/"
   xmlns:cc="http://creativecommons.org/ns#"
   xmlns:rdf="http://www.w3.org/1999/02/22-rdf-syntax-ns#"
   xmlns:svg="http://www.w3.org/2000/svg"
   xmlns="http://www.w3.org/2000/svg"
   xmlns:sodipodi="http://sodipodi.sourceforge.net/DTD/sodipodi-0.dtd"
   xmlns:inkscape="http://www.inkscape.org/namespaces/inkscape"
   version="1.0"
   width="1564.3518"
   height="274.99149"
   viewBox="0 0 15643.518 2749.9149"
   preserveAspectRatio="xMidYMid meet"
   id="svg4187"
   inkscape:version="0.91 r13725"
   sodipodi:docname="logo_original.svg">
  <metadata
     id="metadata4198">
    <rdf:RDF>
      <cc:Work
         rdf:about="">
        <dc:format>image/svg+xml</dc:format>
        <dc:type
           rdf:resource="http://purl.org/dc/dcmitype/StillImage" />
        <dc:title></dc:title>
      </cc:Work>
    </rdf:RDF>
  </metadata>
  <defs
     id="defs4196" />
  <sodipodi:namedview
     pagecolor="#ffffff"
     bordercolor="#666666"
     borderopacity="1"
     objecttolerance="10"
     gridtolerance="10"
     guidetolerance="10"
     inkscape:pageopacity="0"
     inkscape:pageshadow="2"
     inkscape:window-width="1920"
     inkscape:window-height="1016"
     id="namedview4194"
     showgrid="false"
     fit-margin-top="5"
     fit-margin-left="5"
     fit-margin-right="5"
     fit-margin-bottom="5"
     inkscape:zoom="0.48731441"
     inkscape:cx="765.15352"
     inkscape:cy="120.40985"
     inkscape:window-x="0"
     inkscape:window-y="27"
     inkscape:window-maximized="1"
     inkscape:current-layer="svg4187" />
  <g
     id="layer1"
     style="fill:#000000;stroke:none"
     transform="translate(-2940.2527,-1621.9011)">
    <path
       d="m 3934,4263 c -163,-184 -328,-412 -423,-581 -50,-88 -56,-94 -114,-124 -170,-85 -320,-215 -372,-321 -75,-154 -26,-347 122,-488 105,-99 214,-161 379,-212 153,-48 252,-61 474,-61 222,0 321,13 474,61 173,54 304,130 402,234 97,103 139,209 132,333 -5,103 -39,170 -136,265 -84,84 -145,127 -265,189 -77,40 -80,42 -126,125 -58,103 -120,197 -207,313 -71,94 -244,303 -267,323 -12,9 -26,-2 -73,-56 z m 183,-267 c 157,-201 282,-409 300,-496 5,-30 5,-30 -43,-30 -27,-1 -85,-7 -129,-15 -44,-8 -83,-15 -87,-15 -4,0 -15,17 -23,38 -34,81 -104,121 -176,102 -43,-12 -97,-68 -106,-111 -6,-34 -4,-34 -106,-14 -43,8 -101,15 -129,15 -50,0 -50,0 -44,28 22,99 194,373 353,564 77,93 61,99 190,-66 z m -424,-665 c 94,-24 131,-43 180,-90 50,-47 67,-80 67,-131 0,-87 -62,-140 -162,-140 -69,0 -119,29 -175,100 -92,119 -154,179 -213,209 l -59,29 72,20 c 93,26 194,27 290,3 z m 906,-6 55,-18 -50,-25 c -76,-38 -128,-86 -191,-173 -74,-103 -126,-139 -202,-139 -175,0 -230,161 -95,280 103,90 326,125 483,75 z"
       id="path4190"
       inkscape:connector-curvature="0"
       style="fill:#000000" />
    <path
       d="m 3535,2419 c -8,-11 83,-223 162,-378 110,-215 212,-350 278,-367 79,-20 185,103 319,366 92,181 169,361 158,372 -6,6 -34,1 -71,-12 -201,-67 -571,-66 -772,4 -38,13 -71,20 -74,15 z"
       id="path4192"
       inkscape:connector-curvature="0"
       style="fill:#000000" />
  </g>
  <flowRoot
     xml:space="preserve"
     id="flowRoot4135"
     style="font-style:normal;font-weight:normal;font-size:400.00003052px;line-height:125%;font-family:sans-serif;letter-spacing:0px;word-spacing:0px;fill:#000000;fill-opacity:1;stroke:none;stroke-width:1px;stroke-linecap:butt;stroke-linejoin:miter;stroke-opacity:1"
     transform="matrix(5.3458325,0,0,5.3458325,12999.587,-15952.7)"><flowRegion
       id="flowRegion4137"><rect
         id="rect4139"
         width="5230.9551"
         height="689.23828"
         x="-1966.1427"
         y="2974.8247" /></flowRegion><flowPara
       id="flowPara4141"
       style="font-style:normal;font-variant:normal;font-weight:normal;font-stretch:normal;font-family:cmmi10;-inkscape-font-specification:cmmi10"><flowSpan
   style="font-style:normal;font-variant:normal;font-weight:normal;font-stretch:normal;font-family:cmr10;-inkscape-font-specification:cmr10"
   id="flowSpan4149">ingenia</flowSpan>wizard</flowPara></flowRoot></svg>
