<?xml version="1.0" encoding="UTF-8" standalone="no"?>
<svg
   xmlns:dc="http://purl.org/dc/elements/1.1/"
   xmlns:cc="http://creativecommons.org/ns#"
   xmlns:rdf="http://www.w3.org/1999/02/22-rdf-syntax-ns#"
   xmlns:svg="http://www.w3.org/2000/svg"
   xmlns="http://www.w3.org/2000/svg"
   xmlns:sodipodi="http://sodipodi.sourceforge.net/DTD/sodipodi-0.dtd"
   xmlns:inkscape="http://www.inkscape.org/namespaces/inkscape"
   version="1.0"
   width="1564.3518"
   height="274.99149"
   viewBox="0 0 15643.518 2749.9149"
   preserveAspectRatio="xMidYMid meet"
   id="svg4187"
   inkscape:version="0.91 r13725"
   sodipodi:docname="logo.svg">
  <metadata
     id="metadata4198">
    <rdf:RDF>
      <cc:Work
         rdf:about="">
        <dc:format>image/svg+xml</dc:format>
        <dc:type
           rdf:resource="http://purl.org/dc/dcmitype/StillImage" />
        <dc:title></dc:title>
      </cc:Work>
    </rdf:RDF>
  </metadata>
  <defs
     id="defs4196" />
  <sodipodi:namedview
     pagecolor="#ffffff"
     bordercolor="#666666"
     borderopacity="1"
     objecttolerance="10"
     gridtolerance="10"
     guidetolerance="10"
     inkscape:pageopacity="0"
     inkscape:pageshadow="2"
     inkscape:window-width="1920"
     inkscape:window-height="1016"
     id="namedview4194"
     showgrid="false"
     fit-margin-top="5"
     fit-margin-left="5"
     fit-margin-right="5"
     fit-margin-bottom="5"
     inkscape:zoom="0.48731441"
     inkscape:cx="765.15352"
     inkscape:cy="120.40985"
     inkscape:window-x="0"
     inkscape:window-y="27"
     inkscape:window-maximized="1"
     inkscape:current-layer="svg4187" />
  <g
     id="layer1"
     style="fill:#ffffff;stroke:none"
     transform="translate(-2940.2527,-1621.9011)">
    <path
       d="m 3934,4263 c -163,-184 -328,-412 -423,-581 -50,-88 -56,-94 -114,-124 -170,-85 -320,-215 -372,-321 -75,-154 -26,-347 122,-488 105,-99 214,-161 379,-212 153,-48 252,-61 474,-61 222,0 321,13 474,61 173,54 304,130 402,234 97,103 139,209 132,333 -5,103 -39,170 -136,265 -84,84 -145,127 -265,189 -77,40 -80,42 -126,125 -58,103 -120,197 -207,313 -71,94 -244,303 -267,323 -12,9 -26,-2 -73,-56 z m 183,-267 c 157,-201 282,-409 300,-496 5,-30 5,-30 -43,-30 -27,-1 -85,-7 -129,-15 -44,-8 -83,-15 -87,-15 -4,0 -15,17 -23,38 -34,81 -104,121 -176,102 -43,-12 -97,-68 -106,-111 -6,-34 -4,-34 -106,-14 -43,8 -101,15 -129,15 -50,0 -50,0 -44,28 22,99 194,373 353,564 77,93 61,99 190,-66 z m -424,-665 c 94,-24 131,-43 180,-90 50,-47 67,-80 67,-131 0,-87 -62,-140 -162,-140 -69,0 -119,29 -175,100 -92,119 -154,179 -213,209 l -59,29 72,20 c 93,26 194,27 290,3 z m 906,-6 55,-18 -50,-25 c -76,-38 -128,-86 -191,-173 -74,-103 -126,-139 -202,-139 -175,0 -230,161 -95,280 103,90 326,125 483,75 z"
       id="path4190"
       inkscape:connector-curvature="0"
       style="fill:#ffffff" />
    <path
       d="m 3535,2419 c -8,-11 83,-223 162,-378 110,-215 212,-350 278,-367 79,-20 185,103 319,366 92,181 169,361 158,372 -6,6 -34,1 -71,-12 -201,-67 -571,-66 -772,4 -38,13 -71,20 -74,15 z"
       id="path4192"
       inkscape:connector-curvature="0"
       style="fill:#ffffff" />
  </g>
  <g
     transform="matrix(5.3458325,0,0,5.3458325,12999.587,-15952.7)"
     style="font-style:normal;font-weight:normal;font-size:400.00003052px;line-height:125%;font-family:sans-serif;letter-spacing:0px;word-spacing:0px;fill:#ffffff;fill-opacity:1;stroke:none;stroke-width:1px;stroke-linecap:butt;stroke-linejoin:miter;stroke-opacity:1"
     id="flowRoot4135">
    <path
       d="m -1953.8379,3357.645 0,-14.0625 q 13.6719,0 22.4609,-2.1484 8.7891,-2.1484 8.7891,-10.5469 l 0,-109.1797 q 0,-15.4297 -6.0547,-18.9453 -5.8594,-3.5156 -23.4375,-3.5156 l 0,-14.0625 57.6172,-4.2969 0,150 q 0,8.3985 7.6172,10.5469 7.6172,2.1484 20.3125,2.1484 l 0,14.0625 -87.3047,0 z m 16.9922,-245.5078 q 0,-8.7891 6.6406,-15.4297 6.6407,-6.6406 15.2344,-6.6406 5.6641,0 10.9375,2.9297 5.2734,2.9297 8.2031,8.2031 2.9297,5.2734 2.9297,10.9375 0,8.5938 -6.6406,15.2344 -6.6406,6.6406 -15.4297,6.6406 -8.5937,0 -15.2344,-6.6406 -6.6406,-6.6406 -6.6406,-15.2344 z"
       style="font-style:normal;font-variant:normal;font-weight:normal;font-stretch:normal;font-family:cmr10;-inkscape-font-specification:cmr10;fill:#ffffff"
       id="path4152" />
    <path
       d="m -1843.291,3357.645 0,-14.0625 q 13.6719,0 22.4609,-2.1484 8.7891,-2.1484 8.7891,-10.5469 l 0,-109.1797 q 0,-10.7422 -3.3203,-15.4297 -3.125,-4.8828 -9.1797,-5.8593 -6.0547,-1.1719 -18.75,-1.1719 l 0,-14.0625 58.0078,-4.2969 0,39.0625 q 8.0078,-17.1875 23.6328,-28.125 15.8203,-10.9375 34.375,-10.9375 27.7344,0 41.6016,13.2813 14.0625,13.2812 14.0625,40.625 l 0,96.0937 q 0,8.3985 8.7891,10.5469 8.789,2.1484 22.4609,2.1484 l 0,14.0625 -91.6016,0 0,-14.0625 q 13.6719,0 22.461,-2.1484 8.789,-2.1484 8.789,-10.5469 l 0,-94.9219 q 0,-19.5312 -5.664,-32.0312 -5.6641,-12.6953 -23.2422,-12.6953 -23.2422,0 -38.2813,18.5547 -14.8437,18.5546 -14.8437,42.1875 l 0,78.9062 q 0,8.3985 8.789,10.5469 8.7891,2.1484 22.2657,2.1484 l 0,14.0625 -91.6016,0 z"
       style="font-style:normal;font-variant:normal;font-weight:normal;font-stretch:normal;font-family:cmr10;-inkscape-font-specification:cmr10;fill:#ffffff"
       id="path4154" />
    <path
       d="m -1622.1972,3388.895 q 0,-14.2578 10.3515,-25 10.3516,-10.5468 24.6094,-15.039 -8.0078,-6.0547 -12.3047,-15.2344 -4.1015,-9.1797 -4.1015,-19.5313 0,-18.75 11.914,-33.2031 -18.3594,-17.9687 -18.3594,-41.2109 0,-12.5 5.2735,-23.4375 5.4687,-10.9375 15.039,-18.9453 9.5704,-8.0079 21.2891,-12.1094 11.7188,-4.2969 24.0234,-4.2969 23.8282,0 42.7735,13.8672 8.2031,-8.7891 19.3359,-13.4766 11.3282,-4.8828 23.4375,-4.8828 8.5938,0 14.0625,6.25 5.4688,6.0547 5.4688,14.6485 0,4.8828 -3.711,8.5937 -3.7109,3.7109 -8.5937,3.7109 -5.0781,0 -8.7891,-3.7109 -3.7109,-3.7109 -3.7109,-8.5937 0,-7.4219 4.8828,-10.3516 -20.7031,0 -35.5469,14.2578 7.2266,7.2266 11.5235,17.7734 4.4922,10.3516 4.4922,20.7032 0,16.9922 -9.375,30.664 -9.375,13.4766 -24.8047,21.0938 -15.2344,7.4219 -31.4454,7.4219 -21.875,0 -40.039,-11.9141 -5.6641,7.8125 -5.6641,17.5781 0,10.5469 6.836,18.5547 7.0312,7.8125 17.5781,7.8125 l 32.8125,0 q 23.8281,0 42.9687,4.2969 19.1407,4.2969 32.0313,17.1875 13.0859,12.8906 13.0859,36.5234 0,17.5782 -14.8437,29.1016 -14.8438,11.7188 -35.5469,16.7969 -20.5078,5.2734 -38.0859,5.2734 -17.7735,0 -38.4766,-5.2734 -20.7031,-5.0781 -35.5469,-16.7969 -14.8437,-11.5234 -14.8437,-29.1016 z m 22.4609,0 q 0,13.4766 10.9375,22.461 10.9375,9.1797 26.3672,13.4765 15.4297,4.4922 29.1016,4.4922 13.4765,0 28.9062,-4.4922 15.4297,-4.2968 26.1719,-13.4765 10.9375,-8.9844 10.9375,-22.461 0,-20.8984 -19.1406,-27.1484 -19.1407,-6.0547 -46.4844,-6.0547 l -32.8125,0 q -9.1797,0 -16.9922,4.2969 -7.6172,4.4922 -12.3047,12.3047 -4.6875,8.0078 -4.6875,16.6015 z m 55.2734,-100.7812 q 33.9844,0 33.9844,-48.4375 0,-20.8985 -7.2265,-34.375 -7.2266,-13.6719 -26.7579,-13.6719 -19.5312,0 -26.7578,13.6719 -7.2265,13.4765 -7.2265,34.375 0,13.2812 2.7343,24.0234 2.7344,10.7422 10.1563,17.5781 7.4219,6.836 21.0937,6.836 z"
       style="font-style:normal;font-variant:normal;font-weight:normal;font-stretch:normal;font-family:cmr10;-inkscape-font-specification:cmr10;fill:#ffffff"
       id="path4156" />
    <path
       d="m -1333.7206,3362.1372 q -24.4141,0 -44.9219,-12.6953 -20.3125,-12.8906 -32.0313,-34.1797 -11.5234,-21.4844 -11.5234,-45.3125 0,-23.4375 10.5469,-44.5312 10.7422,-21.0938 29.6875,-33.9844 19.1406,-13.086 42.5781,-13.086 18.3594,0 31.8359,6.25 13.6719,6.0547 22.461,16.9922 8.789,10.9375 13.2812,25.7813 4.4922,14.8437 4.4922,32.6172 0,5.2734 -4.1015,5.2734 l -115.8204,0 0,4.2969 q 0,33.2031 13.2813,57.0312 13.4766,23.8282 43.75,23.8282 12.3047,0 22.6562,-5.4688 10.5469,-5.4687 18.1641,-15.2344 7.8125,-9.7656 10.5469,-20.8984 0.3906,-1.3672 1.3672,-2.3437 1.1718,-1.1719 2.539,-1.1719 l 3.5157,0 q 4.1015,0 4.1015,5.0781 -5.664,22.6563 -24.414,37.3047 -18.75,14.4531 -41.9922,14.4531 z m -53.125,-106.8359 91.2109,0 q 0,-15.0391 -4.2969,-30.4688 -4.1015,-15.4297 -13.8672,-25.5859 -9.7656,-10.3516 -25.5859,-10.3516 -22.6562,0 -35.1563,21.2891 -12.3046,21.0937 -12.3046,45.1172 z"
       style="font-style:normal;font-variant:normal;font-weight:normal;font-stretch:normal;font-family:cmr10;-inkscape-font-specification:cmr10;fill:#ffffff"
       id="path4158" />
    <path
       d="m -1244.0722,3357.645 0,-14.0625 q 13.6719,0 22.4609,-2.1484 8.7891,-2.1484 8.7891,-10.5469 l 0,-109.1797 q 0,-10.7422 -3.3203,-15.4297 -3.125,-4.8828 -9.1797,-5.8593 -6.0547,-1.1719 -18.75,-1.1719 l 0,-14.0625 58.0078,-4.2969 0,39.0625 q 8.0078,-17.1875 23.6328,-28.125 15.8203,-10.9375 34.375,-10.9375 27.7344,0 41.6016,13.2813 14.0625,13.2812 14.0625,40.625 l 0,96.0937 q 0,8.3985 8.7891,10.5469 8.789,2.1484 22.4609,2.1484 l 0,14.0625 -91.6016,0 0,-14.0625 q 13.6719,0 22.461,-2.1484 8.789,-2.1484 8.789,-10.5469 l 0,-94.9219 q 0,-19.5312 -5.664,-32.0312 -5.6641,-12.6953 -23.2422,-12.6953 -23.2422,0 -38.2813,18.5547 -14.8437,18.5546 -14.8437,42.1875 l 0,78.9062 q 0,8.3985 8.789,10.5469 8.7891,2.1484 22.2657,2.1484 l 0,14.0625 -91.6016,0 z"
       style="font-style:normal;font-variant:normal;font-weight:normal;font-stretch:normal;font-family:cmr10;-inkscape-font-specification:cmr10;fill:#ffffff"
       id="path4160" />
    <path
       d="m -1021.8066,3357.645 0,-14.0625 q 13.6719,0 22.46096,-2.1484 8.78906,-2.1484 8.78906,-10.5469 l 0,-109.1797 q 0,-15.4297 -6.05468,-18.9453 -5.85934,-3.5156 -23.43754,-3.5156 l 0,-14.0625 57.61723,-4.2969 0,150 q 0,8.3985 7.61718,10.5469 7.61719,2.1484 20.31251,2.1484 l 0,14.0625 -87.30472,0 z m 16.9922,-245.5078 q 0,-8.7891 6.64064,-15.4297 6.64062,-6.6406 15.23437,-6.6406 5.66406,0 10.9375,2.9297 5.27344,2.9297 8.20313,8.2031 2.92969,5.2734 2.92969,10.9375 0,8.5938 -6.64063,15.2344 -6.64063,6.6406 -15.42969,6.6406 -8.59375,0 -15.23437,-6.6406 -6.64064,-6.6406 -6.64064,-15.2344 z"
       style="font-style:normal;font-variant:normal;font-weight:normal;font-stretch:normal;font-family:cmr10;-inkscape-font-specification:cmr10;fill:#ffffff"
       id="path4162" />
    <path
       d="m -907.15808,3318.3872 q 0,-23.8281 18.75,-38.6719 18.75,-15.039 44.92188,-21.0937 26.36719,-6.25 50,-6.25 l 0,-16.4063 q 0,-11.5234 -5.07812,-22.2656 -5.07813,-10.9375 -14.64844,-17.7734 -9.57031,-7.0313 -21.09375,-7.0313 -26.5625,0 -40.42969,11.9141 7.61719,0 12.5,5.8594 5.07812,5.664 5.07812,13.2812 0,8.0078 -5.66406,13.6719 -5.66406,5.664 -13.47656,5.664 -8.00782,0 -13.67188,-5.664 -5.66406,-5.6641 -5.66406,-13.6719 0,-21.0937 19.14063,-31.25 19.14062,-10.3516 42.1875,-10.3516 16.21094,0 32.61719,7.0313 16.40625,6.8359 26.75781,19.7266 10.54688,12.8906 10.54688,30.0781 l 0,90.0391 q 0,7.8125 3.32031,14.4531 3.32031,6.4453 10.35156,6.4453 6.64063,0 9.76563,-6.6406 3.32031,-6.6407 3.32031,-14.2578 l 0,-25.586 11.71875,0 0,25.586 q 0,8.9843 -4.6875,17.1875 -4.6875,8.0078 -12.69531,12.8906 -7.8125,4.6875 -16.99219,4.6875 -11.71875,0 -20.3125,-8.9844 -8.39844,-9.1797 -9.375,-21.6797 -7.42188,15.0391 -21.875,24.0235 -14.45313,8.789 -30.85938,8.789 -15.23438,0 -30.07813,-4.4922 -14.64844,-4.4922 -24.60937,-14.0625 -9.76563,-9.7656 -9.76563,-25.1953 z m 32.42188,0 q 0,14.0625 10.35156,23.6328 10.35156,9.5703 24.41407,9.5703 12.89062,0 23.4375,-6.4453 10.54687,-6.4453 16.79687,-17.5781 6.25,-11.1328 6.25,-23.4375 l 0,-41.6016 q -18.16406,0 -37.30469,6.0547 -18.94531,5.8594 -31.44531,18.5547 -12.5,12.6953 -12.5,31.25 z"
       style="font-style:normal;font-variant:normal;font-weight:normal;font-stretch:normal;font-family:cmr10;-inkscape-font-specification:cmr10;fill:#ffffff"
       id="path4164" />
    <path
       d="m -680.00964,3311.1607 q 0,-8.3985 2.14844,-19.336 2.34375,-10.9375 5.07812,-19.3359 2.73438,-8.5938 9.17969,-26.1719 6.64063,-17.5781 7.22656,-19.1406 5.27344,-14.6485 5.27344,-24.0235 0,-11.914 -8.78906,-11.914 -15.82031,0 -26.17188,16.4062 -10.15625,16.211 -15.03906,36.3281 -0.78125,2.5391 -3.32031,2.5391 l -4.6875,0 q -3.32032,0 -3.32032,-3.7109 l 0,-1.1719 q 6.44532,-23.8281 19.72657,-42.1875 13.28125,-18.5547 33.59375,-18.5547 14.25781,0 24.02344,9.375 9.96094,9.375 9.96094,23.8281 0,7.4219 -3.32032,15.625 -4.6875,12.1094 -11.13281,29.1016 -6.25,16.9922 -9.76563,30.8594 -3.51562,13.8672 -3.51562,26.7578 0,15.625 8.20312,25.3906 8.20313,9.7656 23.82813,9.7656 21.28907,0 35.35157,-32.4218 -0.58594,-2.3438 -0.58594,-6.6407 0,-10.7421 3.32031,-24.414 l 22.46094,-90.0391 q 1.36719,-5.2734 6.25,-8.9844 4.88281,-3.9062 10.54688,-3.9062 4.6875,0 8.20312,3.125 3.71094,3.125 3.71094,8.2031 0,2.3438 -0.39062,3.125 l -22.46094,89.2578 q -3.90625,16.0157 -3.90625,28.711 0,15.039 6.83593,24.6093 7.03126,9.375 21.87501,9.375 25.78125,0 42.38281,-33.9843 6.25,-12.1094 13.86719,-35.7422 7.8125,-23.6328 7.8125,-36.1328 0,-11.5235 -3.71094,-18.1641 -3.71093,-6.8359 -10.35156,-14.6484 -6.44531,-7.8125 -6.44531,-11.7188 0,-7.6172 6.44531,-14.0625 6.64063,-6.6406 14.45313,-6.6406 9.57031,0 13.67187,8.789 4.29688,8.7891 4.29688,19.9219 0,13.4766 -4.49219,34.375 -4.49219,20.7032 -11.32813,41.7969 -6.83593,20.8984 -12.89062,33.3984 -21.875,43.3594 -54.49219,43.3594 -16.79688,0 -30.66407,-6.4453 -13.86719,-6.4453 -20.50781,-20.5078 -6.44532,11.5234 -16.99219,19.3359 -10.35156,7.6172 -23.04688,7.6172 -26.36719,0 -42.38281,-12.5 -16.01563,-12.6953 -16.01563,-38.4765 z"
       style="font-style:normal;font-variant:normal;font-weight:normal;font-stretch:normal;font-family:cmmi10;-inkscape-font-specification:cmmi10;fill:#ffffff"
       id="path4166" />
    <path
       d="m -405.9862,3328.9341 q 0,-7.4219 3.125,-15.625 l 32.42187,-86.1328 q 5.27344,-14.6485 5.27344,-24.0235 0,-11.914 -8.78906,-11.914 -15.82031,0 -26.17188,16.4062 -10.15625,16.211 -15.03906,36.3281 -0.78125,2.5391 -3.32031,2.5391 l -4.6875,0 q -3.32032,0 -3.32032,-3.7109 l 0,-1.1719 q 6.44532,-23.8281 19.72657,-42.1875 13.28125,-18.5547 33.59375,-18.5547 14.25781,0 24.02344,9.375 9.96094,9.375 9.96094,23.8281 0,7.4219 -3.32032,15.625 l -32.42187,85.9375 q -5.46875,13.2813 -5.46875,24.0235 0,11.914 9.17968,11.914 15.62501,0 25.97657,-16.6015 10.54687,-16.7969 14.84375,-36.1328 0.78125,-2.3438 3.125,-2.3438 l 4.88281,0 q 1.5625,0 2.53907,1.1719 0.97656,0.9766 0.97656,2.3437 0,0.3907 -0.39063,1.1719 -5.46875,22.6563 -19.14062,41.7969 -13.47657,19.1406 -33.59376,19.1406 -14.0625,0 -24.02344,-9.5703 -9.96093,-9.7656 -9.96093,-23.6328 z m 45.11719,-213.6719 q 0,-8.3984 7.03125,-15.2344 7.03125,-6.8359 15.42969,-6.8359 6.83593,0 11.13281,4.2969 4.49219,4.1015 4.49219,10.5468 0,8.9844 -7.22657,15.8204 -7.03125,6.6406 -15.625,6.6406 -6.44531,0 -10.9375,-4.2969 -4.29687,-4.4922 -4.29687,-10.9375 z"
       style="font-style:normal;font-variant:normal;font-weight:normal;font-stretch:normal;font-family:cmmi10;-inkscape-font-specification:cmmi10;fill:#ffffff"
       id="path4168" />
    <path
       d="m -280.20495,3362.1372 q -3.125,0 -3.125,-3.7109 0,-1.9531 0.78125,-2.7344 10.74218,-18.5547 25.78125,-35.3516 15.23437,-16.9921 34.375,-34.1796 19.33594,-17.3829 38.67188,-34.7657 19.53125,-17.3828 31.64063,-30.8594 l -1.5625,0 q -8.78907,0 -25.78126,-5.664 -16.99219,-5.6641 -26.75781,-5.6641 -10.54688,0 -20.50782,4.6875 -9.96093,4.4922 -12.69531,14.0625 -0.58594,2.9297 -3.125,2.9297 l -4.88281,0 q -3.125,0 -3.125,-4.1016 l 0,-1.1718 q 3.125,-11.7188 10.15625,-21.875 7.22656,-10.1563 17.57812,-16.4063 10.54688,-6.4453 21.87501,-6.4453 8.00781,0 13.28125,3.7109 5.27344,3.5157 12.30469,11.1329 7.03125,7.6171 11.32812,10.9375 4.49219,3.3203 11.13282,3.3203 8.78906,0 15.625,-8.0078 7.03125,-8.0079 13.86718,-19.9219 1.17188,-1.1719 2.92969,-1.1719 l 4.6875,0 q 1.36719,0 2.14844,0.9766 0.97656,0.9765 0.97656,2.539 0,1.3672 -0.78125,2.5391 -10.74219,18.5547 -25.19531,34.7656 -14.25781,16.0156 -37.5,36.9141 -23.04688,20.7031 -39.06251,35.1562 -15.82031,14.2579 -29.6875,29.4922 3.125,-0.7812 8.39844,-0.7812 9.76562,0 26.5625,5.664 16.99219,5.4688 26.17188,5.4688 9.96094,0 20.11719,-4.2969 10.15625,-4.2969 17.57812,-12.1094 7.42188,-7.8125 9.96094,-17.9687 0.97656,-2.7344 3.125,-2.7344 l 4.88281,0 q 1.5625,0 2.53907,1.3672 0.97656,1.1719 0.97656,2.5391 0,0.3906 -0.39063,1.1718 -3.71093,15.2344 -12.89062,29.1016 -9.17969,13.6719 -22.65625,22.6563 -13.28125,8.789 -28.51563,8.789 -7.61719,0 -12.89063,-3.5156 -5.27343,-3.5156 -12.5,-11.1328 -7.03125,-7.8125 -11.52344,-11.1328 -4.49218,-3.5157 -10.9375,-3.5157 -19.92187,0 -35.74219,27.9297 -1.36718,1.3672 -2.73437,1.3672 l -4.88281,0 z"
       style="font-style:normal;font-variant:normal;font-weight:normal;font-stretch:normal;font-family:cmmi10;-inkscape-font-specification:cmmi10;fill:#ffffff"
       id="path4170" />
    <path
       d="m -44.267451,3362.1372 q -25.195314,0 -39.843753,-18.9453 -14.453126,-19.1406 -14.453126,-45.1172 0,-25.5859 13.281251,-53.125 13.281251,-27.5391 35.74219,-45.7031 22.656252,-18.3594 48.63281656,-18.3594 11.91406344,0 21.28906444,6.4453 9.375,6.4453 14.648438,17.5781 4.492188,-16.0156 17.578127,-16.0156 5.078125,0 8.398438,3.125 3.515625,2.9297 3.515625,8.0078 0,1.1719 -0.195312,1.7578 0,0.586 -0.195313,1.3672 l -27.92969,111.7188 q -2.734375,11.9141 -2.734375,19.5312 0,17.1875 11.523439,17.1875 12.500001,0 18.945314,-15.8203 6.640625,-16.0156 11.132813,-36.914 0.78125,-2.3438 3.125,-2.3438 l 4.882813,0 q 1.5625,0 2.539063,1.3672 0.976562,1.3672 0.976562,2.5391 -7.03125,27.9297 -15.429688,44.9218 -8.203126,16.7969 -26.953127,16.7969 -13.476564,0 -23.828127,-7.8125 -10.351564,-8.0078 -12.8906263,-21.0937 -25.7812517,28.9062 -51.7578167,28.9062 z m 0.390625,-10.5469 q 14.453126,0 27.92969,-10.7421 13.671876,-10.9375 23.4375017,-25.586 0.390625,-0.3906 0.390625,-1.1719 l 21.4843763,-86.914 0.390625,-1.1719 q -2.34375,-14.2578 -10.351563,-24.4141 -7.8125,-10.3515 -21.289064,-10.3515 -13.476564,0 -25.195314,11.1328 -11.523439,10.9375 -19.531252,25.9765 -7.812501,16.0157 -15.039064,43.9454 -7.03125,27.9297 -7.03125,43.3593 0,13.8672 5.859375,25 6.054688,10.9375 18.945314,10.9375 z"
       style="font-style:normal;font-variant:normal;font-weight:normal;font-stretch:normal;font-family:cmmi10;-inkscape-font-specification:cmmi10;fill:#ffffff"
       id="path4172" />
    <path
       d="m 127.99829,3350.8091 q 0,-2.3438 0.39063,-3.5156 l 29.88281,-119.336 q 2.92969,-11.1328 2.92969,-19.5312 0,-17.1875 -11.71875,-17.1875 -12.5,0 -18.55469,15.039 -6.05469,14.8438 -11.71875,37.6953 0,1.1719 -1.17187,1.9532 -1.17188,0.5859 -2.14844,0.5859 l -4.6875,0 q -1.36719,0 -2.34375,-1.3672 -0.97657,-1.5625 -0.97657,-2.7344 4.29688,-17.3828 8.20313,-29.4921 4.10156,-12.1094 12.5,-22.0704 8.59375,-9.9609 21.28907,-9.9609 13.86718,0 24.21875,8.0078 10.54687,8.0078 13.08594,21.0938 10.15625,-13.2813 23.04687,-21.0938 13.08594,-8.0078 28.51563,-8.0078 12.69531,0 22.26563,7.4219 9.76562,7.4219 9.76562,20.1172 0,10.1562 -6.44531,17.7734 -6.25,7.4219 -16.79688,7.4219 -6.44531,0 -10.9375,-3.9063 -4.29687,-4.1015 -4.29687,-10.5468 0,-8.7891 6.44531,-15.625 6.44531,-7.0313 14.84375,-7.0313 -6.44531,-5.2734 -15.625,-5.2734 -17.1875,0 -29.88282,12.3047 -12.69531,12.1093 -22.85156,30.8593 l -28.51563,114.4532 q -1.36718,5.4687 -6.25,9.375 -4.6875,3.9062 -10.54687,3.9062 -4.88282,0 -8.39844,-3.125 -3.51563,-3.125 -3.51563,-8.2031 z"
       style="font-style:normal;font-variant:normal;font-weight:normal;font-stretch:normal;font-family:cmmi10;-inkscape-font-specification:cmmi10;fill:#ffffff"
       id="path4174" />
    <path
       d="m 347.13892,3362.1372 q -25.19531,0 -39.84375,-18.9453 -14.45313,-19.1406 -14.45313,-45.1172 0,-25.5859 13.28125,-53.125 13.28125,-27.5391 35.74219,-45.7031 22.65626,-18.3594 48.63282,-18.3594 11.71875,0 21.09375,6.6406 9.57031,6.4453 14.84375,17.3828 l 22.46094,-89.2578 q 1.5625,-6.8359 1.95313,-10.7422 0,-6.4453 -25.97657,-6.4453 -4.10156,0 -4.10156,-5.2734 0.19531,-0.9766 0.78125,-3.5156 0.78125,-2.5391 1.75781,-3.9063 1.17188,-1.3672 3.125,-1.3672 l 53.90626,-4.2969 q 4.88281,0 4.88281,5.0782 l -57.61719,230.0781 q -2.73438,6.6406 -2.73438,19.1406 0,17.1875 11.52344,17.1875 12.5,0 18.94531,-15.8203 6.64063,-16.0156 11.13282,-36.914 0.78125,-2.3438 3.125,-2.3438 l 4.88281,0 q 1.5625,0 2.53906,1.3672 0.97657,1.3672 0.97657,2.5391 -7.03125,27.9297 -15.42969,44.9218 -8.20313,16.7969 -26.95313,16.7969 -13.47656,0 -23.82813,-7.8125 -10.35156,-8.0078 -12.89062,-21.0937 -25.78125,28.9062 -51.75782,28.9062 z m 0.39063,-10.5469 q 14.45312,0 27.92969,-10.7421 13.67187,-10.9375 23.4375,-25.586 0.39062,-0.3906 0.39062,-1.5625 l 21.875,-88.0859 q -2.34375,-14.0625 -10.35156,-24.2188 -8.00781,-10.1562 -21.28906,-10.1562 -13.47657,0 -25.19532,11.1328 -11.52344,10.9375 -19.53125,25.9765 -7.8125,16.0157 -15.03906,43.9454 -7.03125,27.9297 -7.03125,43.3593 0,13.8672 5.85937,25 6.05469,10.9375 18.94532,10.9375 z"
       style="font-style:normal;font-variant:normal;font-weight:normal;font-stretch:normal;font-family:cmmi10;-inkscape-font-specification:cmmi10;fill:#ffffff"
       id="path4176" />
  </g>
</svg>
